<svg width="34" height="32" viewBox="0 0 34 32" fill="none" xmlns="http://www.w3.org/2000/svg">
<path d="M28.5962 1H10.8448C6.3088 1 1.34246 4.06097 1.02557 8.58587V8.58587C0.718111 12.9762 5.31227 15 9.71339 15H21.8067C25.8747 15 29.9867 17.5244 29.9999 21.5923V21.5923C30.0129 25.5579 25.98 28 22.0144 28H2.51871" stroke="#5A9F8B" stroke-width="2"/>
<path d="M31.5962 4H13.8448C9.3088 4 4.34246 7.06097 4.02557 11.5859V11.5859C3.71811 15.9762 8.31227 18 12.7134 18H24.8067C28.8747 18 32.9867 20.5244 32.9999 24.5923V24.5923C33.0129 28.5579 28.98 31 25.0144 31H5.51871" stroke="#5A9F8B" stroke-width="2"/>
</svg>
